<?xml version="1.0" encoding="UTF-8" ?>
<svg version="1.1" width="64" height="64" xmlns="http://www.w3.org/2000/svg" shape-rendering="crispEdges">
<rect x="38" y="6" width="1" height="1" fill="#FFFFFF" />
<rect x="39" y="6" width="1" height="1" fill="#FFFFFF" />
<rect x="40" y="6" width="1" height="1" fill="#FFFFFF" />
<rect x="41" y="6" width="1" height="1" fill="#FFFFFF" />
<rect x="42" y="6" width="1" height="1" fill="#FFFFFF" />
<rect x="44" y="6" width="1" height="1" fill="#FFFFFF" />
<rect x="45" y="6" width="1" height="1" fill="#FFFFFF" />
<rect x="46" y="6" width="1" height="1" fill="#FFFFFF" />
<rect x="47" y="6" width="1" height="1" fill="#FFFFFF" />
<rect x="48" y="6" width="1" height="1" fill="#FFFFFF" />
<rect x="38" y="7" width="1" height="1" fill="#FFFFFF" />
<rect x="39" y="7" width="1" height="1" fill="#FFFFFF" />
<rect x="40" y="7" width="1" height="1" fill="#FFFFFF" />
<rect x="41" y="7" width="1" height="1" fill="#FFFFFF" />
<rect x="42" y="7" width="1" height="1" fill="#FFFFFF" />
<rect x="44" y="7" width="1" height="1" fill="#FFFFFF" />
<rect x="45" y="7" width="1" height="1" fill="#FFFFFF" />
<rect x="46" y="7" width="1" height="1" fill="#FFFFFF" />
<rect x="47" y="7" width="1" height="1" fill="#FFFFFF" />
<rect x="48" y="7" width="1" height="1" fill="#FFFFFF" />
<rect x="38" y="8" width="1" height="1" fill="#FFFFFF" />
<rect x="39" y="8" width="1" height="1" fill="#FFFFFF" />
<rect x="40" y="8" width="1" height="1" fill="#FFFFFF" />
<rect x="41" y="8" width="1" height="1" fill="#FFFFFF" />
<rect x="42" y="8" width="1" height="1" fill="#FFFFFF" />
<rect x="44" y="8" width="1" height="1" fill="#FFFFFF" />
<rect x="45" y="8" width="1" height="1" fill="#FFFFFF" />
<rect x="46" y="8" width="1" height="1" fill="#FFFFFF" />
<rect x="47" y="8" width="1" height="1" fill="#FFFFFF" />
<rect x="48" y="8" width="1" height="1" fill="#FFFFFF" />
<rect x="38" y="9" width="1" height="1" fill="#FFFFFF" />
<rect x="39" y="9" width="1" height="1" fill="#FFFFFF" />
<rect x="40" y="9" width="1" height="1" fill="#FFFFFF" />
<rect x="41" y="9" width="1" height="1" fill="#FFFFFF" />
<rect x="42" y="9" width="1" height="1" fill="#FFFFFF" />
<rect x="44" y="9" width="1" height="1" fill="#FFFFFF" />
<rect x="45" y="9" width="1" height="1" fill="#FFFFFF" />
<rect x="46" y="9" width="1" height="1" fill="#FFFFFF" />
<rect x="47" y="9" width="1" height="1" fill="#FFFFFF" />
<rect x="48" y="9" width="1" height="1" fill="#FFFFFF" />
<rect x="38" y="10" width="1" height="1" fill="#FFFFFF" />
<rect x="39" y="10" width="1" height="1" fill="#FFFFFF" />
<rect x="40" y="10" width="1" height="1" fill="#FFFFFF" />
<rect x="41" y="10" width="1" height="1" fill="#FFFFFF" />
<rect x="42" y="10" width="1" height="1" fill="#FFFFFF" />
<rect x="44" y="10" width="1" height="1" fill="#FFFFFF" />
<rect x="45" y="10" width="1" height="1" fill="#FFFFFF" />
<rect x="46" y="10" width="1" height="1" fill="#FFFFFF" />
<rect x="47" y="10" width="1" height="1" fill="#FFFFFF" />
<rect x="48" y="10" width="1" height="1" fill="#FFFFFF" />
<rect x="38" y="12" width="1" height="1" fill="#FFFFFF" />
<rect x="39" y="12" width="1" height="1" fill="#FFFFFF" />
<rect x="40" y="12" width="1" height="1" fill="#FFFFFF" />
<rect x="41" y="12" width="1" height="1" fill="#FFFFFF" />
<rect x="42" y="12" width="1" height="1" fill="#FFFFFF" />
<rect x="44" y="12" width="1" height="1" fill="#FFFFFF" />
<rect x="45" y="12" width="1" height="1" fill="#FFFFFF" />
<rect x="46" y="12" width="1" height="1" fill="#FFFFFF" />
<rect x="47" y="12" width="1" height="1" fill="#FFFFFF" />
<rect x="48" y="12" width="1" height="1" fill="#FFFFFF" />
<rect x="38" y="13" width="1" height="1" fill="#FFFFFF" />
<rect x="39" y="13" width="1" height="1" fill="#FFFFFF" />
<rect x="40" y="13" width="1" height="1" fill="#FFFFFF" />
<rect x="41" y="13" width="1" height="1" fill="#FFFFFF" />
<rect x="42" y="13" width="1" height="1" fill="#FFFFFF" />
<rect x="44" y="13" width="1" height="1" fill="#FFFFFF" />
<rect x="45" y="13" width="1" height="1" fill="#FFFFFF" />
<rect x="46" y="13" width="1" height="1" fill="#FFFFFF" />
<rect x="47" y="13" width="1" height="1" fill="#FFFFFF" />
<rect x="48" y="13" width="1" height="1" fill="#FFFFFF" />
<rect x="38" y="14" width="1" height="1" fill="#FFFFFF" />
<rect x="39" y="14" width="1" height="1" fill="#FFFFFF" />
<rect x="40" y="14" width="1" height="1" fill="#FFFFFF" />
<rect x="41" y="14" width="1" height="1" fill="#FFFFFF" />
<rect x="42" y="14" width="1" height="1" fill="#FFFFFF" />
<rect x="44" y="14" width="1" height="1" fill="#FFFFFF" />
<rect x="45" y="14" width="1" height="1" fill="#FFFFFF" />
<rect x="46" y="14" width="1" height="1" fill="#FFFFFF" />
<rect x="47" y="14" width="1" height="1" fill="#FFFFFF" />
<rect x="48" y="14" width="1" height="1" fill="#FFFFFF" />
<rect x="38" y="15" width="1" height="1" fill="#FFFFFF" />
<rect x="39" y="15" width="1" height="1" fill="#FFFFFF" />
<rect x="40" y="15" width="1" height="1" fill="#FFFFFF" />
<rect x="41" y="15" width="1" height="1" fill="#FFFFFF" />
<rect x="42" y="15" width="1" height="1" fill="#FFFFFF" />
<rect x="44" y="15" width="1" height="1" fill="#FFFFFF" />
<rect x="45" y="15" width="1" height="1" fill="#FFFFFF" />
<rect x="46" y="15" width="1" height="1" fill="#FFFFFF" />
<rect x="47" y="15" width="1" height="1" fill="#FFFFFF" />
<rect x="48" y="15" width="1" height="1" fill="#FFFFFF" />
<rect x="38" y="16" width="1" height="1" fill="#FFFFFF" />
<rect x="39" y="16" width="1" height="1" fill="#FFFFFF" />
<rect x="40" y="16" width="1" height="1" fill="#FFFFFF" />
<rect x="41" y="16" width="1" height="1" fill="#FFFFFF" />
<rect x="42" y="16" width="1" height="1" fill="#FFFFFF" />
<rect x="44" y="16" width="1" height="1" fill="#FFFFFF" />
<rect x="45" y="16" width="1" height="1" fill="#FFFFFF" />
<rect x="46" y="16" width="1" height="1" fill="#FFFFFF" />
<rect x="47" y="16" width="1" height="1" fill="#FFFFFF" />
<rect x="48" y="16" width="1" height="1" fill="#FFFFFF" />
<rect x="38" y="18" width="1" height="1" fill="#FFFFFF" />
<rect x="39" y="18" width="1" height="1" fill="#FFFFFF" />
<rect x="40" y="18" width="1" height="1" fill="#FFFFFF" />
<rect x="41" y="18" width="1" height="1" fill="#FFFFFF" />
<rect x="42" y="18" width="1" height="1" fill="#FFFFFF" />
<rect x="44" y="18" width="1" height="1" fill="#FFFFFF" />
<rect x="45" y="18" width="1" height="1" fill="#FFFFFF" />
<rect x="46" y="18" width="1" height="1" fill="#FFFFFF" />
<rect x="47" y="18" width="1" height="1" fill="#FFFFFF" />
<rect x="48" y="18" width="1" height="1" fill="#FFFFFF" />
<rect x="38" y="19" width="1" height="1" fill="#FFFFFF" />
<rect x="39" y="19" width="1" height="1" fill="#FFFFFF" />
<rect x="40" y="19" width="1" height="1" fill="#FFFFFF" />
<rect x="41" y="19" width="1" height="1" fill="#FFFFFF" />
<rect x="42" y="19" width="1" height="1" fill="#FFFFFF" />
<rect x="44" y="19" width="1" height="1" fill="#FFFFFF" />
<rect x="45" y="19" width="1" height="1" fill="#FFFFFF" />
<rect x="46" y="19" width="1" height="1" fill="#FFFFFF" />
<rect x="47" y="19" width="1" height="1" fill="#FFFFFF" />
<rect x="48" y="19" width="1" height="1" fill="#FFFFFF" />
<rect x="38" y="20" width="1" height="1" fill="#FFFFFF" />
<rect x="39" y="20" width="1" height="1" fill="#FFFFFF" />
<rect x="40" y="20" width="1" height="1" fill="#FFFFFF" />
<rect x="41" y="20" width="1" height="1" fill="#FFFFFF" />
<rect x="42" y="20" width="1" height="1" fill="#FFFFFF" />
<rect x="44" y="20" width="1" height="1" fill="#FFFFFF" />
<rect x="45" y="20" width="1" height="1" fill="#FFFFFF" />
<rect x="46" y="20" width="1" height="1" fill="#FFFFFF" />
<rect x="47" y="20" width="1" height="1" fill="#FFFFFF" />
<rect x="48" y="20" width="1" height="1" fill="#FFFFFF" />
<rect x="38" y="21" width="1" height="1" fill="#FFFFFF" />
<rect x="39" y="21" width="1" height="1" fill="#FFFFFF" />
<rect x="40" y="21" width="1" height="1" fill="#FFFFFF" />
<rect x="41" y="21" width="1" height="1" fill="#FFFFFF" />
<rect x="42" y="21" width="1" height="1" fill="#FFFFFF" />
<rect x="44" y="21" width="1" height="1" fill="#FFFFFF" />
<rect x="45" y="21" width="1" height="1" fill="#FFFFFF" />
<rect x="46" y="21" width="1" height="1" fill="#FFFFFF" />
<rect x="47" y="21" width="1" height="1" fill="#FFFFFF" />
<rect x="48" y="21" width="1" height="1" fill="#FFFFFF" />
<rect x="38" y="22" width="1" height="1" fill="#FFFFFF" />
<rect x="39" y="22" width="1" height="1" fill="#FFFFFF" />
<rect x="40" y="22" width="1" height="1" fill="#FFFFFF" />
<rect x="41" y="22" width="1" height="1" fill="#FFFFFF" />
<rect x="42" y="22" width="1" height="1" fill="#FFFFFF" />
<rect x="44" y="22" width="1" height="1" fill="#FFFFFF" />
<rect x="45" y="22" width="1" height="1" fill="#FFFFFF" />
<rect x="46" y="22" width="1" height="1" fill="#FFFFFF" />
<rect x="47" y="22" width="1" height="1" fill="#FFFFFF" />
<rect x="48" y="22" width="1" height="1" fill="#FFFFFF" />
<rect x="20" y="24" width="1" height="1" fill="#FFFFFF" />
<rect x="21" y="24" width="1" height="1" fill="#FFFFFF" />
<rect x="22" y="24" width="1" height="1" fill="#FFFFFF" />
<rect x="23" y="24" width="1" height="1" fill="#FFFFFF" />
<rect x="24" y="24" width="1" height="1" fill="#FFFFFF" />
<rect x="26" y="24" width="1" height="1" fill="#FFFFFF" />
<rect x="27" y="24" width="1" height="1" fill="#FFFFFF" />
<rect x="28" y="24" width="1" height="1" fill="#FFFFFF" />
<rect x="29" y="24" width="1" height="1" fill="#FFFFFF" />
<rect x="30" y="24" width="1" height="1" fill="#FFFFFF" />
<rect x="32" y="24" width="1" height="1" fill="#FFFFFF" />
<rect x="33" y="24" width="1" height="1" fill="#FFFFFF" />
<rect x="34" y="24" width="1" height="1" fill="#FFFFFF" />
<rect x="35" y="24" width="1" height="1" fill="#FFFFFF" />
<rect x="36" y="24" width="1" height="1" fill="#FFFFFF" />
<rect x="38" y="24" width="1" height="1" fill="#FFFFFF" />
<rect x="39" y="24" width="1" height="1" fill="#FFFFFF" />
<rect x="40" y="24" width="1" height="1" fill="#FFFFFF" />
<rect x="41" y="24" width="1" height="1" fill="#FFFFFF" />
<rect x="42" y="24" width="1" height="1" fill="#FFFFFF" />
<rect x="44" y="24" width="1" height="1" fill="#FFFFFF" />
<rect x="45" y="24" width="1" height="1" fill="#FFFFFF" />
<rect x="46" y="24" width="1" height="1" fill="#FFFFFF" />
<rect x="47" y="24" width="1" height="1" fill="#FFFFFF" />
<rect x="48" y="24" width="1" height="1" fill="#FFFFFF" />
<rect x="20" y="25" width="1" height="1" fill="#FFFFFF" />
<rect x="21" y="25" width="1" height="1" fill="#FFFFFF" />
<rect x="22" y="25" width="1" height="1" fill="#FFFFFF" />
<rect x="23" y="25" width="1" height="1" fill="#FFFFFF" />
<rect x="24" y="25" width="1" height="1" fill="#FFFFFF" />
<rect x="26" y="25" width="1" height="1" fill="#FFFFFF" />
<rect x="27" y="25" width="1" height="1" fill="#FFFFFF" />
<rect x="28" y="25" width="1" height="1" fill="#FFFFFF" />
<rect x="29" y="25" width="1" height="1" fill="#FFFFFF" />
<rect x="30" y="25" width="1" height="1" fill="#FFFFFF" />
<rect x="32" y="25" width="1" height="1" fill="#FFFFFF" />
<rect x="33" y="25" width="1" height="1" fill="#FFFFFF" />
<rect x="34" y="25" width="1" height="1" fill="#FFFFFF" />
<rect x="35" y="25" width="1" height="1" fill="#FFFFFF" />
<rect x="36" y="25" width="1" height="1" fill="#FFFFFF" />
<rect x="38" y="25" width="1" height="1" fill="#FFFFFF" />
<rect x="39" y="25" width="1" height="1" fill="#FFFFFF" />
<rect x="40" y="25" width="1" height="1" fill="#FFFFFF" />
<rect x="41" y="25" width="1" height="1" fill="#FFFFFF" />
<rect x="42" y="25" width="1" height="1" fill="#FFFFFF" />
<rect x="44" y="25" width="1" height="1" fill="#FFFFFF" />
<rect x="45" y="25" width="1" height="1" fill="#FFFFFF" />
<rect x="46" y="25" width="1" height="1" fill="#FFFFFF" />
<rect x="47" y="25" width="1" height="1" fill="#FFFFFF" />
<rect x="48" y="25" width="1" height="1" fill="#FFFFFF" />
<rect x="20" y="26" width="1" height="1" fill="#FFFFFF" />
<rect x="21" y="26" width="1" height="1" fill="#FFFFFF" />
<rect x="22" y="26" width="1" height="1" fill="#FFFFFF" />
<rect x="23" y="26" width="1" height="1" fill="#FFFFFF" />
<rect x="24" y="26" width="1" height="1" fill="#FFFFFF" />
<rect x="26" y="26" width="1" height="1" fill="#FFFFFF" />
<rect x="27" y="26" width="1" height="1" fill="#FFFFFF" />
<rect x="28" y="26" width="1" height="1" fill="#FFFFFF" />
<rect x="29" y="26" width="1" height="1" fill="#FFFFFF" />
<rect x="30" y="26" width="1" height="1" fill="#FFFFFF" />
<rect x="32" y="26" width="1" height="1" fill="#FFFFFF" />
<rect x="33" y="26" width="1" height="1" fill="#FFFFFF" />
<rect x="34" y="26" width="1" height="1" fill="#FFFFFF" />
<rect x="35" y="26" width="1" height="1" fill="#FFFFFF" />
<rect x="36" y="26" width="1" height="1" fill="#FFFFFF" />
<rect x="38" y="26" width="1" height="1" fill="#FFFFFF" />
<rect x="39" y="26" width="1" height="1" fill="#FFFFFF" />
<rect x="40" y="26" width="1" height="1" fill="#FFFFFF" />
<rect x="41" y="26" width="1" height="1" fill="#FFFFFF" />
<rect x="42" y="26" width="1" height="1" fill="#FFFFFF" />
<rect x="44" y="26" width="1" height="1" fill="#FFFFFF" />
<rect x="45" y="26" width="1" height="1" fill="#FFFFFF" />
<rect x="46" y="26" width="1" height="1" fill="#FFFFFF" />
<rect x="47" y="26" width="1" height="1" fill="#FFFFFF" />
<rect x="48" y="26" width="1" height="1" fill="#FFFFFF" />
<rect x="20" y="27" width="1" height="1" fill="#FFFFFF" />
<rect x="21" y="27" width="1" height="1" fill="#FFFFFF" />
<rect x="22" y="27" width="1" height="1" fill="#FFFFFF" />
<rect x="23" y="27" width="1" height="1" fill="#FFFFFF" />
<rect x="24" y="27" width="1" height="1" fill="#FFFFFF" />
<rect x="26" y="27" width="1" height="1" fill="#FFFFFF" />
<rect x="27" y="27" width="1" height="1" fill="#FFFFFF" />
<rect x="28" y="27" width="1" height="1" fill="#FFFFFF" />
<rect x="29" y="27" width="1" height="1" fill="#FFFFFF" />
<rect x="30" y="27" width="1" height="1" fill="#FFFFFF" />
<rect x="32" y="27" width="1" height="1" fill="#FFFFFF" />
<rect x="33" y="27" width="1" height="1" fill="#FFFFFF" />
<rect x="34" y="27" width="1" height="1" fill="#FFFFFF" />
<rect x="35" y="27" width="1" height="1" fill="#FFFFFF" />
<rect x="36" y="27" width="1" height="1" fill="#FFFFFF" />
<rect x="38" y="27" width="1" height="1" fill="#FFFFFF" />
<rect x="39" y="27" width="1" height="1" fill="#FFFFFF" />
<rect x="40" y="27" width="1" height="1" fill="#FFFFFF" />
<rect x="41" y="27" width="1" height="1" fill="#FFFFFF" />
<rect x="42" y="27" width="1" height="1" fill="#FFFFFF" />
<rect x="44" y="27" width="1" height="1" fill="#FFFFFF" />
<rect x="45" y="27" width="1" height="1" fill="#FFFFFF" />
<rect x="46" y="27" width="1" height="1" fill="#FFFFFF" />
<rect x="47" y="27" width="1" height="1" fill="#FFFFFF" />
<rect x="48" y="27" width="1" height="1" fill="#FFFFFF" />
<rect x="20" y="28" width="1" height="1" fill="#FFFFFF" />
<rect x="21" y="28" width="1" height="1" fill="#FFFFFF" />
<rect x="22" y="28" width="1" height="1" fill="#FFFFFF" />
<rect x="23" y="28" width="1" height="1" fill="#FFFFFF" />
<rect x="24" y="28" width="1" height="1" fill="#FFFFFF" />
<rect x="26" y="28" width="1" height="1" fill="#FFFFFF" />
<rect x="27" y="28" width="1" height="1" fill="#FFFFFF" />
<rect x="28" y="28" width="1" height="1" fill="#FFFFFF" />
<rect x="29" y="28" width="1" height="1" fill="#FFFFFF" />
<rect x="30" y="28" width="1" height="1" fill="#FFFFFF" />
<rect x="32" y="28" width="1" height="1" fill="#FFFFFF" />
<rect x="33" y="28" width="1" height="1" fill="#FFFFFF" />
<rect x="34" y="28" width="1" height="1" fill="#FFFFFF" />
<rect x="35" y="28" width="1" height="1" fill="#FFFFFF" />
<rect x="36" y="28" width="1" height="1" fill="#FFFFFF" />
<rect x="38" y="28" width="1" height="1" fill="#FFFFFF" />
<rect x="39" y="28" width="1" height="1" fill="#FFFFFF" />
<rect x="40" y="28" width="1" height="1" fill="#FFFFFF" />
<rect x="41" y="28" width="1" height="1" fill="#FFFFFF" />
<rect x="42" y="28" width="1" height="1" fill="#FFFFFF" />
<rect x="44" y="28" width="1" height="1" fill="#FFFFFF" />
<rect x="45" y="28" width="1" height="1" fill="#FFFFFF" />
<rect x="46" y="28" width="1" height="1" fill="#FFFFFF" />
<rect x="47" y="28" width="1" height="1" fill="#FFFFFF" />
<rect x="48" y="28" width="1" height="1" fill="#FFFFFF" />
<rect x="14" y="30" width="1" height="1" fill="#FFFFFF" />
<rect x="15" y="30" width="1" height="1" fill="#FFFFFF" />
<rect x="16" y="30" width="1" height="1" fill="#FFFFFF" />
<rect x="17" y="30" width="1" height="1" fill="#FFFFFF" />
<rect x="18" y="30" width="1" height="1" fill="#FFFFFF" />
<rect x="20" y="30" width="1" height="1" fill="#FFFFFF" />
<rect x="21" y="30" width="1" height="1" fill="#FFFFFF" />
<rect x="22" y="30" width="1" height="1" fill="#FFFFFF" />
<rect x="23" y="30" width="1" height="1" fill="#FFFFFF" />
<rect x="24" y="30" width="1" height="1" fill="#FFFFFF" />
<rect x="38" y="30" width="1" height="1" fill="#FFFFFF" />
<rect x="39" y="30" width="1" height="1" fill="#FFFFFF" />
<rect x="40" y="30" width="1" height="1" fill="#FFFFFF" />
<rect x="41" y="30" width="1" height="1" fill="#FFFFFF" />
<rect x="42" y="30" width="1" height="1" fill="#FFFFFF" />
<rect x="44" y="30" width="1" height="1" fill="#FFFFFF" />
<rect x="45" y="30" width="1" height="1" fill="#FFFFFF" />
<rect x="46" y="30" width="1" height="1" fill="#FFFFFF" />
<rect x="47" y="30" width="1" height="1" fill="#FFFFFF" />
<rect x="48" y="30" width="1" height="1" fill="#FFFFFF" />
<rect x="14" y="31" width="1" height="1" fill="#FFFFFF" />
<rect x="15" y="31" width="1" height="1" fill="#FFFFFF" />
<rect x="16" y="31" width="1" height="1" fill="#FFFFFF" />
<rect x="17" y="31" width="1" height="1" fill="#FFFFFF" />
<rect x="18" y="31" width="1" height="1" fill="#FFFFFF" />
<rect x="20" y="31" width="1" height="1" fill="#FFFFFF" />
<rect x="21" y="31" width="1" height="1" fill="#FFFFFF" />
<rect x="22" y="31" width="1" height="1" fill="#FFFFFF" />
<rect x="23" y="31" width="1" height="1" fill="#FFFFFF" />
<rect x="24" y="31" width="1" height="1" fill="#FFFFFF" />
<rect x="38" y="31" width="1" height="1" fill="#FFFFFF" />
<rect x="39" y="31" width="1" height="1" fill="#FFFFFF" />
<rect x="40" y="31" width="1" height="1" fill="#FFFFFF" />
<rect x="41" y="31" width="1" height="1" fill="#FFFFFF" />
<rect x="42" y="31" width="1" height="1" fill="#FFFFFF" />
<rect x="44" y="31" width="1" height="1" fill="#FFFFFF" />
<rect x="45" y="31" width="1" height="1" fill="#FFFFFF" />
<rect x="46" y="31" width="1" height="1" fill="#FFFFFF" />
<rect x="47" y="31" width="1" height="1" fill="#FFFFFF" />
<rect x="48" y="31" width="1" height="1" fill="#FFFFFF" />
<rect x="14" y="32" width="1" height="1" fill="#FFFFFF" />
<rect x="15" y="32" width="1" height="1" fill="#FFFFFF" />
<rect x="16" y="32" width="1" height="1" fill="#FFFFFF" />
<rect x="17" y="32" width="1" height="1" fill="#FFFFFF" />
<rect x="18" y="32" width="1" height="1" fill="#FFFFFF" />
<rect x="20" y="32" width="1" height="1" fill="#FFFFFF" />
<rect x="21" y="32" width="1" height="1" fill="#FFFFFF" />
<rect x="22" y="32" width="1" height="1" fill="#FFFFFF" />
<rect x="23" y="32" width="1" height="1" fill="#FFFFFF" />
<rect x="24" y="32" width="1" height="1" fill="#FFFFFF" />
<rect x="38" y="32" width="1" height="1" fill="#FFFFFF" />
<rect x="39" y="32" width="1" height="1" fill="#FFFFFF" />
<rect x="40" y="32" width="1" height="1" fill="#FFFFFF" />
<rect x="41" y="32" width="1" height="1" fill="#FFFFFF" />
<rect x="42" y="32" width="1" height="1" fill="#FFFFFF" />
<rect x="44" y="32" width="1" height="1" fill="#FFFFFF" />
<rect x="45" y="32" width="1" height="1" fill="#FFFFFF" />
<rect x="46" y="32" width="1" height="1" fill="#FFFFFF" />
<rect x="47" y="32" width="1" height="1" fill="#FFFFFF" />
<rect x="48" y="32" width="1" height="1" fill="#FFFFFF" />
<rect x="14" y="33" width="1" height="1" fill="#FFFFFF" />
<rect x="15" y="33" width="1" height="1" fill="#FFFFFF" />
<rect x="16" y="33" width="1" height="1" fill="#FFFFFF" />
<rect x="17" y="33" width="1" height="1" fill="#FFFFFF" />
<rect x="18" y="33" width="1" height="1" fill="#FFFFFF" />
<rect x="20" y="33" width="1" height="1" fill="#FFFFFF" />
<rect x="21" y="33" width="1" height="1" fill="#FFFFFF" />
<rect x="22" y="33" width="1" height="1" fill="#FFFFFF" />
<rect x="23" y="33" width="1" height="1" fill="#FFFFFF" />
<rect x="24" y="33" width="1" height="1" fill="#FFFFFF" />
<rect x="38" y="33" width="1" height="1" fill="#FFFFFF" />
<rect x="39" y="33" width="1" height="1" fill="#FFFFFF" />
<rect x="40" y="33" width="1" height="1" fill="#FFFFFF" />
<rect x="41" y="33" width="1" height="1" fill="#FFFFFF" />
<rect x="42" y="33" width="1" height="1" fill="#FFFFFF" />
<rect x="44" y="33" width="1" height="1" fill="#FFFFFF" />
<rect x="45" y="33" width="1" height="1" fill="#FFFFFF" />
<rect x="46" y="33" width="1" height="1" fill="#FFFFFF" />
<rect x="47" y="33" width="1" height="1" fill="#FFFFFF" />
<rect x="48" y="33" width="1" height="1" fill="#FFFFFF" />
<rect x="14" y="34" width="1" height="1" fill="#FFFFFF" />
<rect x="15" y="34" width="1" height="1" fill="#FFFFFF" />
<rect x="16" y="34" width="1" height="1" fill="#FFFFFF" />
<rect x="17" y="34" width="1" height="1" fill="#FFFFFF" />
<rect x="18" y="34" width="1" height="1" fill="#FFFFFF" />
<rect x="20" y="34" width="1" height="1" fill="#FFFFFF" />
<rect x="21" y="34" width="1" height="1" fill="#FFFFFF" />
<rect x="22" y="34" width="1" height="1" fill="#FFFFFF" />
<rect x="23" y="34" width="1" height="1" fill="#FFFFFF" />
<rect x="24" y="34" width="1" height="1" fill="#FFFFFF" />
<rect x="38" y="34" width="1" height="1" fill="#FFFFFF" />
<rect x="39" y="34" width="1" height="1" fill="#FFFFFF" />
<rect x="40" y="34" width="1" height="1" fill="#FFFFFF" />
<rect x="41" y="34" width="1" height="1" fill="#FFFFFF" />
<rect x="42" y="34" width="1" height="1" fill="#FFFFFF" />
<rect x="44" y="34" width="1" height="1" fill="#FFFFFF" />
<rect x="45" y="34" width="1" height="1" fill="#FFFFFF" />
<rect x="46" y="34" width="1" height="1" fill="#FFFFFF" />
<rect x="47" y="34" width="1" height="1" fill="#FFFFFF" />
<rect x="48" y="34" width="1" height="1" fill="#FFFFFF" />
<rect x="8" y="36" width="1" height="1" fill="#FFFFFF" />
<rect x="9" y="36" width="1" height="1" fill="#FFFFFF" />
<rect x="10" y="36" width="1" height="1" fill="#FFFFFF" />
<rect x="11" y="36" width="1" height="1" fill="#FFFFFF" />
<rect x="12" y="36" width="1" height="1" fill="#FFFFFF" />
<rect x="14" y="36" width="1" height="1" fill="#FFFFFF" />
<rect x="15" y="36" width="1" height="1" fill="#FFFFFF" />
<rect x="16" y="36" width="1" height="1" fill="#FFFFFF" />
<rect x="17" y="36" width="1" height="1" fill="#FFFFFF" />
<rect x="18" y="36" width="1" height="1" fill="#FFFFFF" />
<rect x="44" y="36" width="1" height="1" fill="#FFFFFF" />
<rect x="45" y="36" width="1" height="1" fill="#FFFFFF" />
<rect x="46" y="36" width="1" height="1" fill="#FFFFFF" />
<rect x="47" y="36" width="1" height="1" fill="#FFFFFF" />
<rect x="48" y="36" width="1" height="1" fill="#FFFFFF" />
<rect x="8" y="37" width="1" height="1" fill="#FFFFFF" />
<rect x="9" y="37" width="1" height="1" fill="#FFFFFF" />
<rect x="10" y="37" width="1" height="1" fill="#FFFFFF" />
<rect x="11" y="37" width="1" height="1" fill="#FFFFFF" />
<rect x="12" y="37" width="1" height="1" fill="#FFFFFF" />
<rect x="14" y="37" width="1" height="1" fill="#FFFFFF" />
<rect x="15" y="37" width="1" height="1" fill="#FFFFFF" />
<rect x="16" y="37" width="1" height="1" fill="#FFFFFF" />
<rect x="17" y="37" width="1" height="1" fill="#FFFFFF" />
<rect x="18" y="37" width="1" height="1" fill="#FFFFFF" />
<rect x="44" y="37" width="1" height="1" fill="#FFFFFF" />
<rect x="45" y="37" width="1" height="1" fill="#FFFFFF" />
<rect x="46" y="37" width="1" height="1" fill="#FFFFFF" />
<rect x="47" y="37" width="1" height="1" fill="#FFFFFF" />
<rect x="48" y="37" width="1" height="1" fill="#FFFFFF" />
<rect x="8" y="38" width="1" height="1" fill="#FFFFFF" />
<rect x="9" y="38" width="1" height="1" fill="#FFFFFF" />
<rect x="10" y="38" width="1" height="1" fill="#FFFFFF" />
<rect x="11" y="38" width="1" height="1" fill="#FFFFFF" />
<rect x="12" y="38" width="1" height="1" fill="#FFFFFF" />
<rect x="14" y="38" width="1" height="1" fill="#FFFFFF" />
<rect x="15" y="38" width="1" height="1" fill="#FFFFFF" />
<rect x="16" y="38" width="1" height="1" fill="#FFFFFF" />
<rect x="17" y="38" width="1" height="1" fill="#FFFFFF" />
<rect x="18" y="38" width="1" height="1" fill="#FFFFFF" />
<rect x="44" y="38" width="1" height="1" fill="#FFFFFF" />
<rect x="45" y="38" width="1" height="1" fill="#FFFFFF" />
<rect x="46" y="38" width="1" height="1" fill="#FFFFFF" />
<rect x="47" y="38" width="1" height="1" fill="#FFFFFF" />
<rect x="48" y="38" width="1" height="1" fill="#FFFFFF" />
<rect x="8" y="39" width="1" height="1" fill="#FFFFFF" />
<rect x="9" y="39" width="1" height="1" fill="#FFFFFF" />
<rect x="10" y="39" width="1" height="1" fill="#FFFFFF" />
<rect x="11" y="39" width="1" height="1" fill="#FFFFFF" />
<rect x="12" y="39" width="1" height="1" fill="#FFFFFF" />
<rect x="14" y="39" width="1" height="1" fill="#FFFFFF" />
<rect x="15" y="39" width="1" height="1" fill="#FFFFFF" />
<rect x="16" y="39" width="1" height="1" fill="#FFFFFF" />
<rect x="17" y="39" width="1" height="1" fill="#FFFFFF" />
<rect x="18" y="39" width="1" height="1" fill="#FFFFFF" />
<rect x="44" y="39" width="1" height="1" fill="#FFFFFF" />
<rect x="45" y="39" width="1" height="1" fill="#FFFFFF" />
<rect x="46" y="39" width="1" height="1" fill="#FFFFFF" />
<rect x="47" y="39" width="1" height="1" fill="#FFFFFF" />
<rect x="48" y="39" width="1" height="1" fill="#FFFFFF" />
<rect x="8" y="40" width="1" height="1" fill="#FFFFFF" />
<rect x="9" y="40" width="1" height="1" fill="#FFFFFF" />
<rect x="10" y="40" width="1" height="1" fill="#FFFFFF" />
<rect x="11" y="40" width="1" height="1" fill="#FFFFFF" />
<rect x="12" y="40" width="1" height="1" fill="#FFFFFF" />
<rect x="14" y="40" width="1" height="1" fill="#FFFFFF" />
<rect x="15" y="40" width="1" height="1" fill="#FFFFFF" />
<rect x="16" y="40" width="1" height="1" fill="#FFFFFF" />
<rect x="17" y="40" width="1" height="1" fill="#FFFFFF" />
<rect x="18" y="40" width="1" height="1" fill="#FFFFFF" />
<rect x="44" y="40" width="1" height="1" fill="#FFFFFF" />
<rect x="45" y="40" width="1" height="1" fill="#FFFFFF" />
<rect x="46" y="40" width="1" height="1" fill="#FFFFFF" />
<rect x="47" y="40" width="1" height="1" fill="#FFFFFF" />
<rect x="48" y="40" width="1" height="1" fill="#FFFFFF" />
<rect x="8" y="42" width="1" height="1" fill="#FFFFFF" />
<rect x="9" y="42" width="1" height="1" fill="#FFFFFF" />
<rect x="10" y="42" width="1" height="1" fill="#FFFFFF" />
<rect x="11" y="42" width="1" height="1" fill="#FFFFFF" />
<rect x="12" y="42" width="1" height="1" fill="#FFFFFF" />
<rect x="14" y="42" width="1" height="1" fill="#FFFFFF" />
<rect x="15" y="42" width="1" height="1" fill="#FFFFFF" />
<rect x="16" y="42" width="1" height="1" fill="#FFFFFF" />
<rect x="17" y="42" width="1" height="1" fill="#FFFFFF" />
<rect x="18" y="42" width="1" height="1" fill="#FFFFFF" />
<rect x="44" y="42" width="1" height="1" fill="#FFFFFF" />
<rect x="45" y="42" width="1" height="1" fill="#FFFFFF" />
<rect x="46" y="42" width="1" height="1" fill="#FFFFFF" />
<rect x="47" y="42" width="1" height="1" fill="#FFFFFF" />
<rect x="48" y="42" width="1" height="1" fill="#FFFFFF" />
<rect x="8" y="43" width="1" height="1" fill="#FFFFFF" />
<rect x="9" y="43" width="1" height="1" fill="#FFFFFF" />
<rect x="10" y="43" width="1" height="1" fill="#FFFFFF" />
<rect x="11" y="43" width="1" height="1" fill="#FFFFFF" />
<rect x="12" y="43" width="1" height="1" fill="#FFFFFF" />
<rect x="14" y="43" width="1" height="1" fill="#FFFFFF" />
<rect x="15" y="43" width="1" height="1" fill="#FFFFFF" />
<rect x="16" y="43" width="1" height="1" fill="#FFFFFF" />
<rect x="17" y="43" width="1" height="1" fill="#FFFFFF" />
<rect x="18" y="43" width="1" height="1" fill="#FFFFFF" />
<rect x="44" y="43" width="1" height="1" fill="#FFFFFF" />
<rect x="45" y="43" width="1" height="1" fill="#FFFFFF" />
<rect x="46" y="43" width="1" height="1" fill="#FFFFFF" />
<rect x="47" y="43" width="1" height="1" fill="#FFFFFF" />
<rect x="48" y="43" width="1" height="1" fill="#FFFFFF" />
<rect x="8" y="44" width="1" height="1" fill="#FFFFFF" />
<rect x="9" y="44" width="1" height="1" fill="#FFFFFF" />
<rect x="10" y="44" width="1" height="1" fill="#FFFFFF" />
<rect x="11" y="44" width="1" height="1" fill="#FFFFFF" />
<rect x="12" y="44" width="1" height="1" fill="#FFFFFF" />
<rect x="14" y="44" width="1" height="1" fill="#FFFFFF" />
<rect x="15" y="44" width="1" height="1" fill="#FFFFFF" />
<rect x="16" y="44" width="1" height="1" fill="#FFFFFF" />
<rect x="17" y="44" width="1" height="1" fill="#FFFFFF" />
<rect x="18" y="44" width="1" height="1" fill="#FFFFFF" />
<rect x="44" y="44" width="1" height="1" fill="#FFFFFF" />
<rect x="45" y="44" width="1" height="1" fill="#FFFFFF" />
<rect x="46" y="44" width="1" height="1" fill="#FFFFFF" />
<rect x="47" y="44" width="1" height="1" fill="#FFFFFF" />
<rect x="48" y="44" width="1" height="1" fill="#FFFFFF" />
<rect x="8" y="45" width="1" height="1" fill="#FFFFFF" />
<rect x="9" y="45" width="1" height="1" fill="#FFFFFF" />
<rect x="10" y="45" width="1" height="1" fill="#FFFFFF" />
<rect x="11" y="45" width="1" height="1" fill="#FFFFFF" />
<rect x="12" y="45" width="1" height="1" fill="#FFFFFF" />
<rect x="14" y="45" width="1" height="1" fill="#FFFFFF" />
<rect x="15" y="45" width="1" height="1" fill="#FFFFFF" />
<rect x="16" y="45" width="1" height="1" fill="#FFFFFF" />
<rect x="17" y="45" width="1" height="1" fill="#FFFFFF" />
<rect x="18" y="45" width="1" height="1" fill="#FFFFFF" />
<rect x="44" y="45" width="1" height="1" fill="#FFFFFF" />
<rect x="45" y="45" width="1" height="1" fill="#FFFFFF" />
<rect x="46" y="45" width="1" height="1" fill="#FFFFFF" />
<rect x="47" y="45" width="1" height="1" fill="#FFFFFF" />
<rect x="48" y="45" width="1" height="1" fill="#FFFFFF" />
<rect x="8" y="46" width="1" height="1" fill="#FFFFFF" />
<rect x="9" y="46" width="1" height="1" fill="#FFFFFF" />
<rect x="10" y="46" width="1" height="1" fill="#FFFFFF" />
<rect x="11" y="46" width="1" height="1" fill="#FFFFFF" />
<rect x="12" y="46" width="1" height="1" fill="#FFFFFF" />
<rect x="14" y="46" width="1" height="1" fill="#FFFFFF" />
<rect x="15" y="46" width="1" height="1" fill="#FFFFFF" />
<rect x="16" y="46" width="1" height="1" fill="#FFFFFF" />
<rect x="17" y="46" width="1" height="1" fill="#FFFFFF" />
<rect x="18" y="46" width="1" height="1" fill="#FFFFFF" />
<rect x="44" y="46" width="1" height="1" fill="#FFFFFF" />
<rect x="45" y="46" width="1" height="1" fill="#FFFFFF" />
<rect x="46" y="46" width="1" height="1" fill="#FFFFFF" />
<rect x="47" y="46" width="1" height="1" fill="#FFFFFF" />
<rect x="48" y="46" width="1" height="1" fill="#FFFFFF" />
<rect x="14" y="48" width="1" height="1" fill="#FFFFFF" />
<rect x="15" y="48" width="1" height="1" fill="#FFFFFF" />
<rect x="16" y="48" width="1" height="1" fill="#FFFFFF" />
<rect x="17" y="48" width="1" height="1" fill="#FFFFFF" />
<rect x="18" y="48" width="1" height="1" fill="#FFFFFF" />
<rect x="20" y="48" width="1" height="1" fill="#FFFFFF" />
<rect x="21" y="48" width="1" height="1" fill="#FFFFFF" />
<rect x="22" y="48" width="1" height="1" fill="#FFFFFF" />
<rect x="23" y="48" width="1" height="1" fill="#FFFFFF" />
<rect x="24" y="48" width="1" height="1" fill="#FFFFFF" />
<rect x="38" y="48" width="1" height="1" fill="#FFFFFF" />
<rect x="39" y="48" width="1" height="1" fill="#FFFFFF" />
<rect x="40" y="48" width="1" height="1" fill="#FFFFFF" />
<rect x="41" y="48" width="1" height="1" fill="#FFFFFF" />
<rect x="42" y="48" width="1" height="1" fill="#FFFFFF" />
<rect x="44" y="48" width="1" height="1" fill="#FFFFFF" />
<rect x="45" y="48" width="1" height="1" fill="#FFFFFF" />
<rect x="46" y="48" width="1" height="1" fill="#FFFFFF" />
<rect x="47" y="48" width="1" height="1" fill="#FFFFFF" />
<rect x="48" y="48" width="1" height="1" fill="#FFFFFF" />
<rect x="50" y="48" width="1" height="1" fill="#FFFFFF" />
<rect x="51" y="48" width="1" height="1" fill="#FFFFFF" />
<rect x="52" y="48" width="1" height="1" fill="#FFFFFF" />
<rect x="53" y="48" width="1" height="1" fill="#FFFFFF" />
<rect x="54" y="48" width="1" height="1" fill="#FFFFFF" />
<rect x="14" y="49" width="1" height="1" fill="#FFFFFF" />
<rect x="15" y="49" width="1" height="1" fill="#FFFFFF" />
<rect x="16" y="49" width="1" height="1" fill="#FFFFFF" />
<rect x="17" y="49" width="1" height="1" fill="#FFFFFF" />
<rect x="18" y="49" width="1" height="1" fill="#FFFFFF" />
<rect x="20" y="49" width="1" height="1" fill="#FFFFFF" />
<rect x="21" y="49" width="1" height="1" fill="#FFFFFF" />
<rect x="22" y="49" width="1" height="1" fill="#FFFFFF" />
<rect x="23" y="49" width="1" height="1" fill="#FFFFFF" />
<rect x="24" y="49" width="1" height="1" fill="#FFFFFF" />
<rect x="38" y="49" width="1" height="1" fill="#FFFFFF" />
<rect x="39" y="49" width="1" height="1" fill="#FFFFFF" />
<rect x="40" y="49" width="1" height="1" fill="#FFFFFF" />
<rect x="41" y="49" width="1" height="1" fill="#FFFFFF" />
<rect x="42" y="49" width="1" height="1" fill="#FFFFFF" />
<rect x="44" y="49" width="1" height="1" fill="#FFFFFF" />
<rect x="45" y="49" width="1" height="1" fill="#FFFFFF" />
<rect x="46" y="49" width="1" height="1" fill="#FFFFFF" />
<rect x="47" y="49" width="1" height="1" fill="#FFFFFF" />
<rect x="48" y="49" width="1" height="1" fill="#FFFFFF" />
<rect x="50" y="49" width="1" height="1" fill="#FFFFFF" />
<rect x="51" y="49" width="1" height="1" fill="#FFFFFF" />
<rect x="52" y="49" width="1" height="1" fill="#FFFFFF" />
<rect x="53" y="49" width="1" height="1" fill="#FFFFFF" />
<rect x="54" y="49" width="1" height="1" fill="#FFFFFF" />
<rect x="14" y="50" width="1" height="1" fill="#FFFFFF" />
<rect x="15" y="50" width="1" height="1" fill="#FFFFFF" />
<rect x="16" y="50" width="1" height="1" fill="#FFFFFF" />
<rect x="17" y="50" width="1" height="1" fill="#FFFFFF" />
<rect x="18" y="50" width="1" height="1" fill="#FFFFFF" />
<rect x="20" y="50" width="1" height="1" fill="#FFFFFF" />
<rect x="21" y="50" width="1" height="1" fill="#FFFFFF" />
<rect x="22" y="50" width="1" height="1" fill="#FFFFFF" />
<rect x="23" y="50" width="1" height="1" fill="#FFFFFF" />
<rect x="24" y="50" width="1" height="1" fill="#FFFFFF" />
<rect x="38" y="50" width="1" height="1" fill="#FFFFFF" />
<rect x="39" y="50" width="1" height="1" fill="#FFFFFF" />
<rect x="40" y="50" width="1" height="1" fill="#FFFFFF" />
<rect x="41" y="50" width="1" height="1" fill="#FFFFFF" />
<rect x="42" y="50" width="1" height="1" fill="#FFFFFF" />
<rect x="44" y="50" width="1" height="1" fill="#FFFFFF" />
<rect x="45" y="50" width="1" height="1" fill="#FFFFFF" />
<rect x="46" y="50" width="1" height="1" fill="#FFFFFF" />
<rect x="47" y="50" width="1" height="1" fill="#FFFFFF" />
<rect x="48" y="50" width="1" height="1" fill="#FFFFFF" />
<rect x="50" y="50" width="1" height="1" fill="#FFFFFF" />
<rect x="51" y="50" width="1" height="1" fill="#FFFFFF" />
<rect x="52" y="50" width="1" height="1" fill="#FFFFFF" />
<rect x="53" y="50" width="1" height="1" fill="#FFFFFF" />
<rect x="54" y="50" width="1" height="1" fill="#FFFFFF" />
<rect x="14" y="51" width="1" height="1" fill="#FFFFFF" />
<rect x="15" y="51" width="1" height="1" fill="#FFFFFF" />
<rect x="16" y="51" width="1" height="1" fill="#FFFFFF" />
<rect x="17" y="51" width="1" height="1" fill="#FFFFFF" />
<rect x="18" y="51" width="1" height="1" fill="#FFFFFF" />
<rect x="20" y="51" width="1" height="1" fill="#FFFFFF" />
<rect x="21" y="51" width="1" height="1" fill="#FFFFFF" />
<rect x="22" y="51" width="1" height="1" fill="#FFFFFF" />
<rect x="23" y="51" width="1" height="1" fill="#FFFFFF" />
<rect x="24" y="51" width="1" height="1" fill="#FFFFFF" />
<rect x="38" y="51" width="1" height="1" fill="#FFFFFF" />
<rect x="39" y="51" width="1" height="1" fill="#FFFFFF" />
<rect x="40" y="51" width="1" height="1" fill="#FFFFFF" />
<rect x="41" y="51" width="1" height="1" fill="#FFFFFF" />
<rect x="42" y="51" width="1" height="1" fill="#FFFFFF" />
<rect x="44" y="51" width="1" height="1" fill="#FFFFFF" />
<rect x="45" y="51" width="1" height="1" fill="#FFFFFF" />
<rect x="46" y="51" width="1" height="1" fill="#FFFFFF" />
<rect x="47" y="51" width="1" height="1" fill="#FFFFFF" />
<rect x="48" y="51" width="1" height="1" fill="#FFFFFF" />
<rect x="50" y="51" width="1" height="1" fill="#FFFFFF" />
<rect x="51" y="51" width="1" height="1" fill="#FFFFFF" />
<rect x="52" y="51" width="1" height="1" fill="#FFFFFF" />
<rect x="53" y="51" width="1" height="1" fill="#FFFFFF" />
<rect x="54" y="51" width="1" height="1" fill="#FFFFFF" />
<rect x="14" y="52" width="1" height="1" fill="#FFFFFF" />
<rect x="15" y="52" width="1" height="1" fill="#FFFFFF" />
<rect x="16" y="52" width="1" height="1" fill="#FFFFFF" />
<rect x="17" y="52" width="1" height="1" fill="#FFFFFF" />
<rect x="18" y="52" width="1" height="1" fill="#FFFFFF" />
<rect x="20" y="52" width="1" height="1" fill="#FFFFFF" />
<rect x="21" y="52" width="1" height="1" fill="#FFFFFF" />
<rect x="22" y="52" width="1" height="1" fill="#FFFFFF" />
<rect x="23" y="52" width="1" height="1" fill="#FFFFFF" />
<rect x="24" y="52" width="1" height="1" fill="#FFFFFF" />
<rect x="38" y="52" width="1" height="1" fill="#FFFFFF" />
<rect x="39" y="52" width="1" height="1" fill="#FFFFFF" />
<rect x="40" y="52" width="1" height="1" fill="#FFFFFF" />
<rect x="41" y="52" width="1" height="1" fill="#FFFFFF" />
<rect x="42" y="52" width="1" height="1" fill="#FFFFFF" />
<rect x="44" y="52" width="1" height="1" fill="#FFFFFF" />
<rect x="45" y="52" width="1" height="1" fill="#FFFFFF" />
<rect x="46" y="52" width="1" height="1" fill="#FFFFFF" />
<rect x="47" y="52" width="1" height="1" fill="#FFFFFF" />
<rect x="48" y="52" width="1" height="1" fill="#FFFFFF" />
<rect x="50" y="52" width="1" height="1" fill="#FFFFFF" />
<rect x="51" y="52" width="1" height="1" fill="#FFFFFF" />
<rect x="52" y="52" width="1" height="1" fill="#FFFFFF" />
<rect x="53" y="52" width="1" height="1" fill="#FFFFFF" />
<rect x="54" y="52" width="1" height="1" fill="#FFFFFF" />
<rect x="20" y="54" width="1" height="1" fill="#FFFFFF" />
<rect x="21" y="54" width="1" height="1" fill="#FFFFFF" />
<rect x="22" y="54" width="1" height="1" fill="#FFFFFF" />
<rect x="23" y="54" width="1" height="1" fill="#FFFFFF" />
<rect x="24" y="54" width="1" height="1" fill="#FFFFFF" />
<rect x="26" y="54" width="1" height="1" fill="#FFFFFF" />
<rect x="27" y="54" width="1" height="1" fill="#FFFFFF" />
<rect x="28" y="54" width="1" height="1" fill="#FFFFFF" />
<rect x="29" y="54" width="1" height="1" fill="#FFFFFF" />
<rect x="30" y="54" width="1" height="1" fill="#FFFFFF" />
<rect x="32" y="54" width="1" height="1" fill="#FFFFFF" />
<rect x="33" y="54" width="1" height="1" fill="#FFFFFF" />
<rect x="34" y="54" width="1" height="1" fill="#FFFFFF" />
<rect x="35" y="54" width="1" height="1" fill="#FFFFFF" />
<rect x="36" y="54" width="1" height="1" fill="#FFFFFF" />
<rect x="44" y="54" width="1" height="1" fill="#FFFFFF" />
<rect x="45" y="54" width="1" height="1" fill="#FFFFFF" />
<rect x="46" y="54" width="1" height="1" fill="#FFFFFF" />
<rect x="47" y="54" width="1" height="1" fill="#FFFFFF" />
<rect x="48" y="54" width="1" height="1" fill="#FFFFFF" />
<rect x="50" y="54" width="1" height="1" fill="#FFFFFF" />
<rect x="51" y="54" width="1" height="1" fill="#FFFFFF" />
<rect x="52" y="54" width="1" height="1" fill="#FFFFFF" />
<rect x="53" y="54" width="1" height="1" fill="#FFFFFF" />
<rect x="54" y="54" width="1" height="1" fill="#FFFFFF" />
<rect x="20" y="55" width="1" height="1" fill="#FFFFFF" />
<rect x="21" y="55" width="1" height="1" fill="#FFFFFF" />
<rect x="22" y="55" width="1" height="1" fill="#FFFFFF" />
<rect x="23" y="55" width="1" height="1" fill="#FFFFFF" />
<rect x="24" y="55" width="1" height="1" fill="#FFFFFF" />
<rect x="26" y="55" width="1" height="1" fill="#FFFFFF" />
<rect x="27" y="55" width="1" height="1" fill="#FFFFFF" />
<rect x="28" y="55" width="1" height="1" fill="#FFFFFF" />
<rect x="29" y="55" width="1" height="1" fill="#FFFFFF" />
<rect x="30" y="55" width="1" height="1" fill="#FFFFFF" />
<rect x="32" y="55" width="1" height="1" fill="#FFFFFF" />
<rect x="33" y="55" width="1" height="1" fill="#FFFFFF" />
<rect x="34" y="55" width="1" height="1" fill="#FFFFFF" />
<rect x="35" y="55" width="1" height="1" fill="#FFFFFF" />
<rect x="36" y="55" width="1" height="1" fill="#FFFFFF" />
<rect x="44" y="55" width="1" height="1" fill="#FFFFFF" />
<rect x="45" y="55" width="1" height="1" fill="#FFFFFF" />
<rect x="46" y="55" width="1" height="1" fill="#FFFFFF" />
<rect x="47" y="55" width="1" height="1" fill="#FFFFFF" />
<rect x="48" y="55" width="1" height="1" fill="#FFFFFF" />
<rect x="50" y="55" width="1" height="1" fill="#FFFFFF" />
<rect x="51" y="55" width="1" height="1" fill="#FFFFFF" />
<rect x="52" y="55" width="1" height="1" fill="#FFFFFF" />
<rect x="53" y="55" width="1" height="1" fill="#FFFFFF" />
<rect x="54" y="55" width="1" height="1" fill="#FFFFFF" />
<rect x="20" y="56" width="1" height="1" fill="#FFFFFF" />
<rect x="21" y="56" width="1" height="1" fill="#FFFFFF" />
<rect x="22" y="56" width="1" height="1" fill="#FFFFFF" />
<rect x="23" y="56" width="1" height="1" fill="#FFFFFF" />
<rect x="24" y="56" width="1" height="1" fill="#FFFFFF" />
<rect x="26" y="56" width="1" height="1" fill="#FFFFFF" />
<rect x="27" y="56" width="1" height="1" fill="#FFFFFF" />
<rect x="28" y="56" width="1" height="1" fill="#FFFFFF" />
<rect x="29" y="56" width="1" height="1" fill="#FFFFFF" />
<rect x="30" y="56" width="1" height="1" fill="#FFFFFF" />
<rect x="32" y="56" width="1" height="1" fill="#FFFFFF" />
<rect x="33" y="56" width="1" height="1" fill="#FFFFFF" />
<rect x="34" y="56" width="1" height="1" fill="#FFFFFF" />
<rect x="35" y="56" width="1" height="1" fill="#FFFFFF" />
<rect x="36" y="56" width="1" height="1" fill="#FFFFFF" />
<rect x="44" y="56" width="1" height="1" fill="#FFFFFF" />
<rect x="45" y="56" width="1" height="1" fill="#FFFFFF" />
<rect x="46" y="56" width="1" height="1" fill="#FFFFFF" />
<rect x="47" y="56" width="1" height="1" fill="#FFFFFF" />
<rect x="48" y="56" width="1" height="1" fill="#FFFFFF" />
<rect x="50" y="56" width="1" height="1" fill="#FFFFFF" />
<rect x="51" y="56" width="1" height="1" fill="#FFFFFF" />
<rect x="52" y="56" width="1" height="1" fill="#FFFFFF" />
<rect x="53" y="56" width="1" height="1" fill="#FFFFFF" />
<rect x="54" y="56" width="1" height="1" fill="#FFFFFF" />
<rect x="20" y="57" width="1" height="1" fill="#FFFFFF" />
<rect x="21" y="57" width="1" height="1" fill="#FFFFFF" />
<rect x="22" y="57" width="1" height="1" fill="#FFFFFF" />
<rect x="23" y="57" width="1" height="1" fill="#FFFFFF" />
<rect x="24" y="57" width="1" height="1" fill="#FFFFFF" />
<rect x="26" y="57" width="1" height="1" fill="#FFFFFF" />
<rect x="27" y="57" width="1" height="1" fill="#FFFFFF" />
<rect x="28" y="57" width="1" height="1" fill="#FFFFFF" />
<rect x="29" y="57" width="1" height="1" fill="#FFFFFF" />
<rect x="30" y="57" width="1" height="1" fill="#FFFFFF" />
<rect x="32" y="57" width="1" height="1" fill="#FFFFFF" />
<rect x="33" y="57" width="1" height="1" fill="#FFFFFF" />
<rect x="34" y="57" width="1" height="1" fill="#FFFFFF" />
<rect x="35" y="57" width="1" height="1" fill="#FFFFFF" />
<rect x="36" y="57" width="1" height="1" fill="#FFFFFF" />
<rect x="44" y="57" width="1" height="1" fill="#FFFFFF" />
<rect x="45" y="57" width="1" height="1" fill="#FFFFFF" />
<rect x="46" y="57" width="1" height="1" fill="#FFFFFF" />
<rect x="47" y="57" width="1" height="1" fill="#FFFFFF" />
<rect x="48" y="57" width="1" height="1" fill="#FFFFFF" />
<rect x="50" y="57" width="1" height="1" fill="#FFFFFF" />
<rect x="51" y="57" width="1" height="1" fill="#FFFFFF" />
<rect x="52" y="57" width="1" height="1" fill="#FFFFFF" />
<rect x="53" y="57" width="1" height="1" fill="#FFFFFF" />
<rect x="54" y="57" width="1" height="1" fill="#FFFFFF" />
<rect x="20" y="58" width="1" height="1" fill="#FFFFFF" />
<rect x="21" y="58" width="1" height="1" fill="#FFFFFF" />
<rect x="22" y="58" width="1" height="1" fill="#FFFFFF" />
<rect x="23" y="58" width="1" height="1" fill="#FFFFFF" />
<rect x="24" y="58" width="1" height="1" fill="#FFFFFF" />
<rect x="26" y="58" width="1" height="1" fill="#FFFFFF" />
<rect x="27" y="58" width="1" height="1" fill="#FFFFFF" />
<rect x="28" y="58" width="1" height="1" fill="#FFFFFF" />
<rect x="29" y="58" width="1" height="1" fill="#FFFFFF" />
<rect x="30" y="58" width="1" height="1" fill="#FFFFFF" />
<rect x="32" y="58" width="1" height="1" fill="#FFFFFF" />
<rect x="33" y="58" width="1" height="1" fill="#FFFFFF" />
<rect x="34" y="58" width="1" height="1" fill="#FFFFFF" />
<rect x="35" y="58" width="1" height="1" fill="#FFFFFF" />
<rect x="36" y="58" width="1" height="1" fill="#FFFFFF" />
<rect x="44" y="58" width="1" height="1" fill="#FFFFFF" />
<rect x="45" y="58" width="1" height="1" fill="#FFFFFF" />
<rect x="46" y="58" width="1" height="1" fill="#FFFFFF" />
<rect x="47" y="58" width="1" height="1" fill="#FFFFFF" />
<rect x="48" y="58" width="1" height="1" fill="#FFFFFF" />
<rect x="50" y="58" width="1" height="1" fill="#FFFFFF" />
<rect x="51" y="58" width="1" height="1" fill="#FFFFFF" />
<rect x="52" y="58" width="1" height="1" fill="#FFFFFF" />
<rect x="53" y="58" width="1" height="1" fill="#FFFFFF" />
<rect x="54" y="58" width="1" height="1" fill="#FFFFFF" />
</svg>